<svg xmlns="http://www.w3.org/2000/svg" width="256" height="256" viewBox="0 0 100 100"><rect width="100" height="100" rx="20" fill="#00456b"></rect><path d="M67.65 77.35L63.15 64.05L36.35 64.05Q35.65 66.05 34.85 68.40Q34.05 70.75 33.30 73Q32.55 75.25 31.85 77.20Q31.15 79.15 30.75 80.45L30.75 80.45Q29.35 81.05 27.45 81.05L27.45 81.05Q25.85 81.05 24.60 80.20Q23.35 79.35 23.35 77.45L23.35 77.45Q23.35 76.55 23.65 75.60Q23.95 74.65 24.35 73.55L24.35 73.55Q25.85 69.35 28.20 62.75Q30.55 56.15 33.30 48.70Q36.05 41.25 38.90 33.70Q41.75 26.15 44.15 20.15L44.15 20.15Q44.95 19.75 46.55 19.35Q48.15 18.95 49.85 18.95L49.85 18.95Q51.85 18.95 53.70 19.55Q55.55 20.15 56.05 21.55L56.05 21.55Q58.45 27.35 61.20 34.80Q63.95 42.25 66.75 50.05Q69.55 57.85 72.10 65.40Q74.65 72.95 76.65 79.05L76.65 79.05Q75.85 79.95 74.75 80.50Q73.65 81.05 72.25 81.05L72.25 81.05Q70.35 81.05 69.35 80.20Q68.35 79.35 67.65 77.35L67.65 77.35ZM50.15 25.75L49.75 25.75Q48.65 28.75 47.25 32.60Q45.85 36.45 44.35 40.65Q42.85 44.85 41.35 49.15Q39.85 53.45 38.55 57.35L38.55 57.35L61.05 57.35Q59.55 52.85 57.95 48.30Q56.35 43.75 54.90 39.55Q53.45 35.35 52.20 31.80Q50.95 28.25 50.15 25.75L50.15 25.75Z" fill="#fff"></path></svg>